<?xml version="1.0" encoding="UTF-8"?>
<svg version="1.1" viewBox="0 0 2000 2000" width="500" height="500" xmlns="http://www.w3.org/2000/svg">
<path transform="translate(1189,497)" d="m0 0h428l2 1 4 33 3 30 1 22-2 31-4 37-4 20-8 25-6 15-11 25-7 16-10 17-8 10-7 12-4 7-10 10-7 8-11 13-5 5-12 11-8 7-9 9-10 6-11 8-12 9-18 10-16 8-28 13-18 6-48 11-24 4-10 1 39 7 30 7 26 7 16 7 25 12 10 6 16 8 16 12 17 12 8 7 15 14 10 9 10 11 9 11 9 10 7 10 10 16 7 10 12 23 13 30 8 21 7 25 4 30 3 29 1 24-2 29-5 45-1 8-3 2h-427l-1-1-1-103-3-28-4-23-6-24-8-26-6-18-9-19-9-16-9-17-11-16-7-9-8-9-5-8v-2h-2l-7-8-7-7-8-7-9-10-13-11-9-6-10-8-20-13-23-12-16-9-29-12-41-10-25-5-26-3-7-1v-1l25-3 23-4 41-9 15-5 25-11 17-9 16-7 11-8 15-10 13-10 11-8 13-12 7-8 10-9 10-11 8-11 7-8 14-20 6-10 7-14 7-11 10-22 13-42 6-24 5-30 2-22 1-101z" fill="#FEFEFE"/>
<path transform="translate(980,496)" d="m0 0v3l-14 20-10 15-9 17-12 18-12 23-8 18-10 19-7 16-9 25-12 31-9 27-9 41-8 37-6 38-4 36-2 33v47l2 36 4 37 6 36 7 33 9 41 7 23 12 32 6 15 8 23 9 19 10 19 7 16 13 23 10 15 11 20 12 16 9 13v2h-436l-9-12-8-14-24-36-14-28-8-14-12-25-8-20-8-18-11-28-5-18-10-35-10-38-6-31-4-40-3-37-1-17v-61l3-43 5-51 8-38 9-34 10-36 9-27 13-30 8-20 8-18 11-21 6-10 8-17 7-11 11-17 6-8 9-17 7-9 3-3h318z" fill="#FEFEFE"/>
<path transform="translate(290,496)" d="m0 0h15l15 3 12 6 10 9 7 11 5 13 2 9v14l-4 16-6 12-12 12-13 8-13 4h-21l-13-4-11-6-11-11-7-11-5-12-2-12 1-13 3-10 6-11 9-12 7-7 11-5 7-2zm0 6-13 4-9 5-8 7-7 11-4 8-2 8v19l5 15 7 10 7 6 10 6 10 4 6 1h13l13-4 12-8 10-9 5-8 3-12v-21l-3-12-7-10-4-5-11-8-10-5-9-2z" fill="#FEFEFE"/>
<path transform="translate(297,536)" d="m0 0h10l2 2 5 17v2l2-1 3-18 1-2h10l1 1v34l-1 1h-5l-1-1v-16l-2 1-4 15-5 1-3-3-5-18-1 21h-6l-2-2v-29z" fill="#FEFEFE"/>
<path transform="translate(265,536)" d="m0 0h26l1 5-8 3-1 27-1 1h-5l-2-3v-26l-11-1-2-3z" fill="#FEFEFE"/>
</svg>
