<svg xmlns="http://www.w3.org/2000/svg" xmlns:xlink="http://www.w3.org/1999/xlink" width="1756" zoomAndPan="magnify" viewBox="0 0 1317 445.499982" height="594" preserveAspectRatio="xMidYMid meet" version="1.2"><defs><clipPath id="ddb2f63411"><path d="M 0.738281 0 L 1316.261719 0 L 1316.261719 445 L 0.738281 445 Z M 0.738281 0 "/></clipPath><clipPath id="58c9e9d418"><path d="M 132.902344 149.910156 L 265.839844 149.910156 L 265.839844 299.914062 L 132.902344 299.914062 Z M 132.902344 149.910156 "/></clipPath><clipPath id="2aa15ad6bc"><path d="M 225.5 209.316406 C 213.925781 209.316406 191.78125 209.324219 179.207031 209.3125 C 174.429688 209.304688 163.535156 208.492188 163.535156 197.175781 C 163.535156 180.3125 175.394531 180.226562 180.855469 180.226562 L 241.34375 180.226562 C 254.078125 180.226562 264.386719 169.621094 264.386719 156.882812 L 264.386719 149.910156 L 187.113281 149.910156 C 180.648438 149.910156 169.898438 150.035156 158.773438 155.476562 C 152.351562 158.613281 135.503906 170.519531 133.21875 194.71875 C 128.910156 240.378906 170.382812 240.796875 172.390625 240.835938 C 172.390625 240.835938 205.480469 240.84375 218.441406 240.84375 C 223.492188 240.84375 236.542969 242.289062 234.347656 255.921875 C 232.683594 266.253906 222.898438 269.835938 218.421875 269.835938 L 156.472656 269.835938 C 143.734375 269.835938 133.40625 280.527344 133.40625 293.261719 L 133.40625 299.578125 L 206.148438 299.578125 C 223.523438 299.578125 258.769531 302.941406 264.671875 258.191406 C 270.570312 213.527344 234.640625 209.316406 225.5 209.316406 "/></clipPath><clipPath id="0a0c1953c0"><path d="M 283.003906 149.945312 L 415 149.945312 L 415 299.78125 L 283.003906 299.78125 Z M 283.003906 149.945312 "/></clipPath><clipPath id="7407fd36a8"><path d="M 414.820312 149.96875 C 404.144531 149.96875 395.265625 150.140625 387.207031 158.203125 C 381.363281 164.042969 382.402344 170.882812 382.402344 179.289062 L 382.328125 249.179688 C 382.277344 263.609375 376.195312 269.839844 361.914062 269.839844 L 338.007812 269.839844 C 320.808594 269.839844 315.234375 265.277344 315.210938 248.078125 C 315.175781 223.550781 315.101562 149.945312 315.101562 149.945312 C 304.613281 149.945312 295.777344 150.125 287.800781 158.105469 C 282.007812 163.894531 283.089844 170.503906 283.089844 179 L 283.089844 258.984375 C 283.089844 258.984375 283.507812 268.492188 284.734375 272.996094 C 289.195312 289.296875 303.789062 299.304688 323.550781 299.574219 L 372.867188 299.613281 C 399.949219 299.613281 414.796875 284.097656 414.796875 257.40625 Z M 414.820312 149.96875 "/></clipPath><clipPath id="e73a8aac29"><path d="M 434.519531 149.71875 L 612.523438 149.71875 L 612.523438 300 L 434.519531 300 Z M 434.519531 149.71875 "/></clipPath><clipPath id="712a953a40"><path d="M 509.195312 259.484375 L 523.054688 256.292969 C 531.722656 254.015625 537.769531 246.195312 537.785156 237.234375 L 537.785156 191.109375 C 537.792969 185.199219 542.757812 180.027344 549.613281 180.027344 L 570.5625 180.027344 C 576.808594 180.027344 581.453125 185.046875 581.453125 191.011719 L 581.453125 299.585938 L 612.339844 299.585938 L 612.339844 299.617188 L 612.429688 185.035156 C 612.4375 163.253906 601.484375 149.71875 579.796875 149.71875 L 467.148438 149.71875 C 444.992188 149.71875 434.519531 163.210938 434.519531 185.035156 L 434.648438 299.617188 L 434.648438 299.585938 L 465.535156 299.585938 L 465.535156 190.863281 C 465.535156 184.890625 470.390625 179.953125 476.363281 179.984375 L 498.304688 179.984375 C 504.238281 180.007812 509.191406 185.011719 509.203125 190.9375 Z M 509.195312 259.484375 "/></clipPath><clipPath id="d46b8672e8"><path d="M 632.195312 149.722656 L 769.488281 149.722656 L 769.488281 299.882812 L 632.195312 299.882812 Z M 632.195312 149.722656 "/></clipPath><clipPath id="7583ad6786"><path d="M 664.105469 199.59375 C 664.105469 186.4375 670.589844 180.039062 683.476562 180.039062 L 725.21875 180.039062 C 728.203125 180.039062 737.992188 181.058594 737.992188 201.699219 L 664.125 220.015625 Z M 749.460938 269.839844 L 675.550781 269.839844 C 666.125 268.125 664.140625 261.164062 664.140625 250.761719 L 769.480469 225.851562 L 769.480469 185.457031 C 769.480469 163.160156 754.667969 149.722656 732.636719 149.722656 L 669.835938 149.722656 C 644.851562 149.722656 632.195312 164.875 632.195312 188.863281 L 632.226562 258.425781 C 632.226562 258.425781 632.464844 267.464844 633.597656 271.714844 C 638.183594 288.921875 651.945312 299.359375 671.421875 299.597656 L 769.488281 299.613281 L 769.488281 289.949219 C 769.488281 278.859375 760.558594 269.847656 749.46875 269.847656 "/></clipPath><clipPath id="f2a65c2e32"><path d="M 789.335938 149.527344 L 881.386719 149.527344 L 881.386719 299.605469 L 789.335938 299.605469 Z M 789.335938 149.527344 "/></clipPath><clipPath id="e0b07c0df8"><path d="M 832.855469 149.542969 C 803.097656 149.542969 789.402344 164.480469 789.359375 193.511719 L 789.335938 299.585938 L 821.730469 299.585938 L 821.730469 201.183594 C 821.730469 186.253906 827.582031 180.417969 842.542969 180.230469 L 860.933594 180.230469 C 872.019531 180.230469 881.035156 171.203125 881.035156 160.269531 L 881.035156 149.527344 Z M 832.855469 149.542969 "/></clipPath><clipPath id="4f62ad4622"><path d="M 889.324219 149.671875 L 1027 149.671875 L 1027 299.765625 L 889.324219 299.765625 Z M 889.324219 149.671875 "/></clipPath><clipPath id="670461233d"><path d="M 936.023438 179.988281 L 1006.476562 179.988281 C 1017.5625 179.988281 1026.492188 170.691406 1026.492188 159.605469 L 1026.492188 149.671875 L 929.636719 149.671875 C 909.207031 149.671875 895.105469 160.527344 890.605469 178.183594 C 889.515625 182.453125 889.359375 186.902344 889.359375 191.496094 L 889.324219 260.261719 C 889.324219 284.648438 902.402344 299.53125 927.273438 299.53125 L 987.820312 299.609375 C 1008.917969 299.601562 1025.871094 286.023438 1026.539062 266.871094 C 1026.574219 265.714844 1026.539062 203.019531 1026.539062 203.019531 L 967.542969 219.453125 C 960.296875 221.367188 955.269531 227.957031 955.359375 235.457031 L 955.359375 251.039062 L 994.085938 241.144531 L 994.085938 256.574219 C 994.085938 262.171875 991.15625 269.796875 980.1875 269.796875 L 933.949219 269.796875 C 927.253906 269.820312 921.8125 263.40625 921.8125 256.710938 L 921.8125 193.894531 C 921.8125 186.050781 928.179688 179.960938 936.023438 179.988281 "/></clipPath><clipPath id="db75ce4d18"><path d="M 1046.328125 149.722656 L 1183.617188 149.722656 L 1183.617188 299.882812 L 1046.328125 299.882812 Z M 1046.328125 149.722656 "/></clipPath><clipPath id="2cae15a8f8"><path d="M 1078.234375 199.59375 C 1078.234375 186.4375 1084.71875 180.039062 1097.605469 180.039062 L 1139.347656 180.039062 C 1142.332031 180.039062 1152.128906 181.058594 1152.128906 201.699219 L 1078.253906 220.015625 Z M 1163.59375 269.839844 L 1089.6875 269.839844 C 1080.261719 268.125 1078.277344 261.164062 1078.277344 250.761719 L 1183.617188 225.851562 L 1183.617188 185.457031 C 1183.617188 163.160156 1168.804688 149.722656 1146.773438 149.722656 L 1083.964844 149.722656 C 1058.980469 149.722656 1046.328125 164.875 1046.328125 188.863281 L 1046.355469 258.425781 C 1046.355469 258.425781 1046.597656 267.464844 1047.726562 271.714844 C 1052.3125 288.921875 1066.074219 299.359375 1085.550781 299.597656 L 1183.617188 299.613281 L 1183.617188 289.949219 C 1183.617188 278.859375 1174.6875 269.847656 1163.597656 269.847656 "/></clipPath></defs><g id="5cf19c2278"><g clip-rule="nonzero" clip-path="url(#ddb2f63411)"><path style=" stroke:none;fill-rule:nonzero;fill:#ffffff;fill-opacity:1;" d="M 0.738281 0 L 1316.261719 0 L 1316.261719 445 L 0.738281 445 Z M 0.738281 0 "/><path style=" stroke:none;fill-rule:nonzero;fill:#ffffff;fill-opacity:1;" d="M 0.738281 0 L 1316.261719 0 L 1316.261719 445 L 0.738281 445 Z M 0.738281 0 "/></g><g clip-rule="nonzero" clip-path="url(#58c9e9d418)"><g clip-rule="nonzero" clip-path="url(#2aa15ad6bc)"><path style=" stroke:none;fill-rule:nonzero;fill:#312b82;fill-opacity:1;" d="M 132.902344 149.910156 L 265.320312 149.910156 L 265.320312 299.398438 L 132.902344 299.398438 Z M 132.902344 149.910156 "/></g></g><g clip-rule="nonzero" clip-path="url(#0a0c1953c0)"><g clip-rule="nonzero" clip-path="url(#7407fd36a8)"><path style=" stroke:none;fill-rule:nonzero;fill:#312b82;fill-opacity:1;" d="M 283.003906 149.945312 L 414.820312 149.945312 L 414.820312 299.78125 L 283.003906 299.78125 Z M 283.003906 149.945312 "/></g></g><g clip-rule="nonzero" clip-path="url(#e73a8aac29)"><g clip-rule="nonzero" clip-path="url(#712a953a40)"><path style=" stroke:none;fill-rule:nonzero;fill:#312b82;fill-opacity:1;" d="M 434.519531 149.71875 L 612.523438 149.71875 L 612.523438 299.613281 L 434.519531 299.613281 Z M 434.519531 149.71875 "/></g></g><g clip-rule="nonzero" clip-path="url(#d46b8672e8)"><g clip-rule="nonzero" clip-path="url(#7583ad6786)"><path style=" stroke:none;fill-rule:nonzero;fill:#312b82;fill-opacity:1;" d="M 632.195312 149.722656 L 769.488281 149.722656 L 769.488281 299.347656 L 632.195312 299.347656 Z M 632.195312 149.722656 "/></g></g><g clip-rule="nonzero" clip-path="url(#f2a65c2e32)"><g clip-rule="nonzero" clip-path="url(#e0b07c0df8)"><path style=" stroke:none;fill-rule:nonzero;fill:#312b82;fill-opacity:1;" d="M 789.335938 149.527344 L 881.03125 149.527344 L 881.03125 299.605469 L 789.335938 299.605469 Z M 789.335938 149.527344 "/></g></g><g clip-rule="nonzero" clip-path="url(#4f62ad4622)"><g clip-rule="nonzero" clip-path="url(#670461233d)"><path style=" stroke:none;fill-rule:nonzero;fill:#312b82;fill-opacity:1;" d="M 889.324219 149.671875 L 1026.550781 149.671875 L 1026.550781 299.765625 L 889.324219 299.765625 Z M 889.324219 149.671875 "/></g></g><g clip-rule="nonzero" clip-path="url(#db75ce4d18)"><g clip-rule="nonzero" clip-path="url(#2cae15a8f8)"><path style=" stroke:none;fill-rule:nonzero;fill:#312b82;fill-opacity:1;" d="M 1046.328125 149.722656 L 1183.617188 149.722656 L 1183.617188 299.347656 L 1046.328125 299.347656 Z M 1046.328125 149.722656 "/></g></g></g></svg>